<svg height="512" viewBox="0 0 512 512" width="512" xmlns="http://www.w3.org/2000/svg"><g id="Crossword"><path d="m496 120h-112v-104a8 8 0 0 0 -8-8h-128a8 8 0 0 0 -8 8v104h-224a8 8 0 0 0 -8 8v128a8 8 0 0 0 8 8h224v232a8 8 0 0 0 8 8h128a8 8 0 0 0 8-8v-232h112a8 8 0 0 0 8-8v-128a8 8 0 0 0 -8-8zm-240-96h112v96h-112zm112 112v112h-112v-112zm-344 112v-112h104v112zm120 0v-112h96v112zm224 240h-112v-96h112zm0-112h-112v-112h112zm120-128h-104v-112h104z"/><path d="m272 240h48a8 8 0 0 0 0-16h-48a8 8 0 0 0 0 16z"/><path d="m344 240h8a8 8 0 0 0 0-16h-8a8 8 0 0 0 0 16z"/></g></svg>