<svg id="Capa_1" enable-background="new 0 0 512 512" height="512" viewBox="0 0 512 512" width="512" xmlns="http://www.w3.org/2000/svg"><g><path d="m498.832 122.076-108.91-108.908c-18.751-18.751-49.631-17.28-66.517 3.16l-95.971 116.172c-14.857 17.985-13.622 43.986 2.874 60.481l88.707 88.705c16.503 16.503 42.505 17.724 60.483 2.874l116.174-95.968c20.401-16.853 21.946-47.731 3.16-66.516zm-192.349 41.008c-5.858-5.858-5.858-15.356 0-21.214l42.429-42.428c5.859-5.858 15.356-5.858 21.214 0s5.858 15.356 0 21.214l-42.429 42.428c-5.858 5.858-15.355 5.859-21.214 0zm106.072 0-42.429 42.428c-5.857 5.858-15.356 5.859-21.214 0-5.858-5.858-5.858-15.356 0-21.214l42.429-42.428c5.858-5.859 15.356-5.859 21.214 0 5.858 5.858 5.858 15.356 0 21.214z"/><path d="m242.84 247.941-60.022 60.021c-14.405-6.556-31.686-4.624-44.57 6.139l-118.113 98.668c-25.29 21.126-27.016 59.482-3.705 82.792 23.385 23.383 61.709 21.533 82.793-3.706l98.67-118.11c10.764-12.884 12.696-30.165 6.14-44.57l60.022-60.021z"/></g></svg>